<?xml version="1.0" encoding="utf-8"?>
<!-- Generator: Adobe Illustrator 16.0.0, SVG Export Plug-In . SVG Version: 6.00 Build 0)  -->
<!DOCTYPE svg PUBLIC "-//W3C//DTD SVG 1.1//EN" "http://www.w3.org/Graphics/SVG/1.1/DTD/svg11.dtd">
<svg version="1.1" id="Calque_1" focusable="false" xmlns="http://www.w3.org/2000/svg" xmlns:xlink="http://www.w3.org/1999/xlink"
	 x="0px" y="0px" width="87.542px" height="69.999px" viewBox="0 152.048 87.542 69.999"
	 enable-background="new 0 152.048 87.542 69.999" xml:space="preserve">
<path fill="#4E4E4E" d="M49.851,211.286l-0.935,8.34c-0.151,1.395,1.031,2.57,2.42,2.406l8.374-0.93l18.962-18.853l-9.859-9.803
	L49.851,211.286z M87.542,188.811l-5.212-5.182c-1.279-1.272-3.368-1.272-4.647,0l-5.197,5.168l-0.564,0.56l9.873,9.803l5.748-5.715
	C88.82,192.16,88.82,190.096,87.542,188.811z"/>
<path fill="#2BAAE2" d="M31.302,187.047c9.721,0,17.6-7.833,17.6-17.5c0-9.666-7.879-17.5-17.6-17.5
	c-9.722,0-17.601,7.834-17.601,17.5C13.701,179.213,21.58,187.047,31.302,187.047z"/>
<path fill="#2BAAE2" d="M43.622,191.422h-2.297c-3.053,1.395-6.449,2.187-10.023,2.187c-3.576,0-6.958-0.792-10.025-2.187H18.98
	c-10.203,0-18.48,8.23-18.48,18.374v5.688c0,3.623,2.957,6.562,6.6,6.562h37.8c-0.33-0.93-0.467-1.914-0.357-2.912l0.935-8.326
	l0.165-1.518l1.086-1.081l10.629-10.567C53.99,193.855,49.108,191.422,43.622,191.422z"/>
</svg>
