<?xml version="1.0" encoding="utf-8"?>
<!-- Generator: Adobe Illustrator 16.0.0, SVG Export Plug-In . SVG Version: 6.00 Build 0)  -->
<!DOCTYPE svg PUBLIC "-//W3C//DTD SVG 1.1//EN" "http://www.w3.org/Graphics/SVG/1.1/DTD/svg11.dtd">
<svg version="1.1" id="Calque_1" xmlns="http://www.w3.org/2000/svg" xmlns:xlink="http://www.w3.org/1999/xlink" x="0px" y="0px"
	 width="105.001px" height="70px" viewBox="245.14 162 105.001 70" enable-background="new 245.14 162 105.001 70"
	 xml:space="preserve">
<g>
	<path fill="#2BAAE2" d="M314.982,232c-22.556,0-45.112,0-67.668,0c-1.577-0.658-2.192-1.826-2.173-3.551
		c0.063-5.586,0.02-11.174,0.025-16.761c0.002-1.988,1.146-3.13,3.125-3.133c3.062-0.004,6.124,0.015,9.186-0.021
		c0.398-0.004,0.867-0.173,1.179-0.422c2.718-2.17,5.394-4.395,8.11-6.566c3.553-2.842,7.596-4.483,12.146-4.682
		c2.762-0.121,5.532-0.073,8.299-0.076c7.331-0.008,14.663-0.013,21.994,0.001c4.308,0.009,7.177,3.935,5.775,7.863
		c-0.841,2.359-3.212,3.917-6.048,3.927c-4.593,0.015-9.187,0.001-13.78,0.009c-0.378,0.001-0.772,0.017-1.131,0.122
		c-1.415,0.415-2.253,1.766-2.033,3.207c0.231,1.516,1.443,2.486,3.16,2.487c7.096,0.007,14.192,0.022,21.287-0.007
		c2.7-0.011,5.141-0.86,7.266-2.567c5.562-4.467,11.131-8.925,16.688-13.397c1.803-1.452,3.799-1.958,6.03-1.297
		c1.866,0.552,2.94,1.956,3.724,3.643c0,1.301,0,2.602,0,3.902c-0.805,0.987-1.515,2.075-2.435,2.938
		c-1.264,1.185-2.688,2.197-4.041,3.285c-7.686,6.176-15.374,12.348-23.052,18.532C318.948,230.779,317.021,231.504,314.982,232z"/>
</g>
<g>
	<path fill="#4E4E4E" d="M319.338,193.772c-2.553,0-5.105,0-7.657,0c-0.864-0.318-1.161-0.953-1.137-1.853
		c0.04-1.458,0.018-2.917,0.008-4.376c-0.004-0.494,0.164-0.891,0.512-1.238c3.249-3.255,6.492-6.516,9.742-9.77
		c0.139-0.139,0.163-0.25,0.107-0.436c-0.575-1.906-0.638-3.833-0.163-5.766c1.353-5.502,6.518-9.056,12.133-8.208
		c4.436,0.669,7.366,3.275,8.833,7.524c0.201,0.582,0.291,1.203,0.434,1.806c0,0.979,0,1.958,0,2.936
		c-0.032,0.136-0.071,0.271-0.096,0.409c-1.026,5.929-6.654,9.925-12.537,8.897c-0.163-0.029-0.261,0.016-0.364,0.136
		c-0.419,0.483-0.852,0.954-1.269,1.438c-0.342,0.399-0.769,0.579-1.287,0.574c-0.629-0.006-1.259-0.002-1.888-0.001
		c-0.093,0-0.186,0.01-0.293,0.017c0,0.14,0,0.247,0,0.353c0,0.676,0.002,1.353-0.001,2.029c-0.003,0.655-0.275,1.157-0.88,1.429
		c-0.202,0.091-0.443,0.13-0.668,0.134c-0.794,0.016-1.59,0.006-2.413,0.006c0,0.121,0,0.216,0,0.311
		c0,0.729,0.004,1.459-0.001,2.188c-0.005,0.613-0.369,1.137-0.934,1.367C319.456,193.705,319.399,193.741,319.338,193.772z
		 M334.28,172.906c1.656,0.001,2.978-1.315,2.978-2.966c0.001-1.63-1.33-2.967-2.956-2.969c-1.622-0.001-2.952,1.32-2.955,2.936
		C331.343,171.588,332.631,172.905,334.28,172.906z"/>
</g>
</svg>
