<?xml version="1.0" encoding="utf-8"?>
<!-- Generator: Adobe Illustrator 16.0.0, SVG Export Plug-In . SVG Version: 6.00 Build 0)  -->
<!DOCTYPE svg PUBLIC "-//W3C//DTD SVG 1.1//EN" "http://www.w3.org/Graphics/SVG/1.1/DTD/svg11.dtd">
<svg version="1.1" id="Calque_1" xmlns="http://www.w3.org/2000/svg" xmlns:xlink="http://www.w3.org/1999/xlink" x="0px" y="0px"
	 width="79.537px" height="69.836px" viewBox="146.619 119.59 79.537 69.836" enable-background="new 146.619 119.59 79.537 69.836"
	 xml:space="preserve">
<g>
	<path fill="#4E4E4E" d="M152.897,119.59c22.416,0,44.832,0,67.248,0c0.244,0.097,0.482,0.219,0.734,0.288
		c2.099,0.576,3.691,1.774,4.601,3.779c0.28,0.617,0.647,1.282,0.648,1.925c0.035,19.31,0.028,38.619,0.027,57.929
		c0,0.2,0.01,0.407-0.036,0.599c-0.668,2.794-3.89,5.316-6.781,5.316c-21.722,0-43.443,0.003-65.165-0.012
		c-0.701,0-1.424-0.101-2.1-0.288c-3.284-0.906-5.453-3.792-5.453-7.195c-0.001-18.281-0.001-36.563,0-54.845
		c0-3.225,1.98-5.987,5.03-7.04C152.068,119.903,152.481,119.743,152.897,119.59z M193.964,158.911
		c5.143,0,10.285,0.002,15.427-0.001c1.333-0.001,2.08-0.634,2.134-1.963c0.065-1.605,0.062-3.217,0.003-4.822
		c-0.049-1.333-0.789-1.974-2.112-1.988c-1.095-0.012-2.19-0.031-3.285-0.031c-9.167,0.008-18.334,0.019-27.501,0.031
		c-1.385,0.002-2.12,0.716-2.133,2.093c-0.015,1.519-0.016,3.038,0,4.557c0.015,1.42,0.742,2.123,2.175,2.124
		C183.769,158.913,188.867,158.911,193.964,158.911z M194.038,143.867c5.122,0,10.244,0.004,15.365-0.003
		c1.391-0.002,2.021-0.607,2.046-1.992c0.027-1.517,0.029-3.035,0-4.551c-0.029-1.525-0.618-2.074-2.162-2.074
		c-10.176-0.002-20.352-0.002-30.528,0c-1.593,0-2.217,0.634-2.225,2.25c-0.006,1.34-0.006,2.681,0,4.022
		c0.007,1.733,0.62,2.348,2.34,2.348C183.929,143.868,188.984,143.867,194.038,143.867z M194.043,173.8
		c5.121,0,10.242,0.004,15.363-0.003c1.391-0.002,2.02-0.609,2.043-1.992c0.025-1.495,0.031-2.99,0.001-4.484
		c-0.032-1.603-0.614-2.14-2.24-2.141c-10.13-0.001-20.26-0.001-30.39,0c-1.643,0-2.269,0.619-2.284,2.268
		c-0.012,1.34-0.007,2.681-0.001,4.021c0.008,1.738,0.606,2.331,2.347,2.332C183.935,173.801,188.989,173.8,194.043,173.8z
		 M172.792,154.509c0-3.488-2.755-6.251-6.232-6.251c-3.46,0-6.3,2.795-6.31,6.211c-0.01,3.487,2.798,6.317,6.271,6.319
		C170.048,160.791,172.793,158.042,172.792,154.509z M166.6,175.678c3.473-0.01,6.156-2.742,6.15-6.261
		c-0.006-3.416-2.77-6.128-6.232-6.115c-3.421,0.013-6.223,2.786-6.227,6.163C160.289,172.924,163.095,175.688,166.6,175.678z
		 M166.58,133.368c-3.47-0.005-6.27,2.74-6.288,6.165c-0.017,3.382,2.785,6.199,6.179,6.211c3.496,0.013,6.272-2.668,6.28-6.065
		C172.759,136.106,170.089,133.374,166.58,133.368z"/>
	<path fill="none" d="M152.897,119.59c-0.416,0.153-0.83,0.313-1.249,0.457c-3.049,1.052-5.029,3.814-5.03,7.04
		c-0.001,18.282-0.001,36.563,0,54.845c0,3.403,2.17,6.29,5.453,7.195c0.676,0.187,1.399,0.287,2.101,0.288
		c21.722,0.015,43.443,0.012,65.165,0.012c2.892,0,6.113-2.521,6.781-5.316c0.046-0.191,0.037-0.399,0.037-0.599
		c0.001-19.31,0.007-38.619-0.027-57.929c-0.001-0.644-0.368-1.309-0.648-1.925c-0.909-2.005-2.502-3.204-4.601-3.779
		c-0.251-0.069-0.489-0.191-0.733-0.288c2.058,0,4.116,0,6.174,0c0,23.333,0,46.667,0,70c-26.667,0-53.333,0-80,0
		c0-23.333,0-46.667,0-70C148.512,119.59,150.705,119.59,152.897,119.59z"/>
	<path fill="#2BAAE2" d="M193.964,158.911c-5.098,0-10.195,0.002-15.292-0.001c-1.433-0.001-2.16-0.703-2.175-2.124
		c-0.017-1.519-0.015-3.038,0-4.557c0.013-1.377,0.749-2.091,2.133-2.093c9.167-0.012,18.334-0.023,27.501-0.031
		c1.095,0,2.19,0.019,3.285,0.031c1.324,0.015,2.063,0.655,2.112,1.988c0.059,1.605,0.063,3.217-0.003,4.823
		c-0.054,1.328-0.8,1.961-2.134,1.962C204.249,158.913,199.107,158.911,193.964,158.911z"/>
	<path fill="#FFFFFF" d="M194.038,143.867c-5.054,0-10.108,0.001-15.163,0c-1.721,0-2.333-0.615-2.34-2.349
		c-0.005-1.341-0.006-2.681,0-4.022c0.008-1.615,0.632-2.249,2.225-2.249c10.176-0.002,20.352-0.002,30.528,0
		c1.544,0,2.133,0.549,2.162,2.074c0.028,1.517,0.026,3.035,0,4.552c-0.025,1.384-0.656,1.99-2.046,1.991
		C204.281,143.871,199.159,143.867,194.038,143.867z"/>
	<path fill="#FFFFFF" d="M194.043,173.8c-5.054,0-10.107,0.001-15.161,0c-1.741,0-2.339-0.593-2.347-2.332
		c-0.006-1.34-0.011-2.681,0.001-4.021c0.015-1.649,0.641-2.267,2.284-2.268c10.13-0.001,20.26-0.001,30.391,0
		c1.625,0,2.207,0.538,2.239,2.141c0.03,1.494,0.024,2.99-0.001,4.484c-0.024,1.383-0.652,1.991-2.043,1.992
		C204.285,173.804,199.164,173.8,194.043,173.8z"/>
	<path fill="#FFFFFF" d="M172.792,154.509c0.001,3.533-2.745,6.282-6.271,6.279c-3.473-0.002-6.281-2.832-6.271-6.319
		c0.01-3.416,2.85-6.211,6.31-6.211C170.037,148.258,172.792,151.021,172.792,154.509z"/>
	<path fill="#2BAAE2" d="M166.6,175.678c-3.505,0.01-6.311-2.754-6.308-6.213c0.003-3.377,2.805-6.15,6.227-6.163
		c3.462-0.013,6.226,2.699,6.232,6.115C172.757,172.936,170.073,175.668,166.6,175.678z"/>
	<path fill="#2BAAE2" d="M166.58,133.368c3.508,0.006,6.179,2.738,6.17,6.311c-0.008,3.396-2.784,6.078-6.279,6.065
		c-3.394-0.012-6.196-2.829-6.179-6.211C160.31,136.108,163.11,133.363,166.58,133.368z"/>
</g>
</svg>
