<?xml version="1.0" encoding="utf-8"?>
<!-- Generator: Adobe Illustrator 16.0.0, SVG Export Plug-In . SVG Version: 6.00 Build 0)  -->
<!DOCTYPE svg PUBLIC "-//W3C//DTD SVG 1.1//EN" "http://www.w3.org/Graphics/SVG/1.1/DTD/svg11.dtd">
<svg version="1.1" id="Capa_1" xmlns="http://www.w3.org/2000/svg" xmlns:xlink="http://www.w3.org/1999/xlink" x="0px" y="0px"
	 width="40px" height="40px" viewBox="235 235 40 40" enable-background="new 235 235 40 40" xml:space="preserve">
<g>
	<g id="account-circle">
		<path fill="#FFFFFF" d="M255,235c-11,0-20,9-20,20s9,20,20,20s20-9,20-20S266,235,255,235z M255,241c3.4,0,6,2.6,6,6s-2.6,6-6,6
			c-3.4,0-6-2.6-6-6S251.6,241,255,241z M255,269.4c-5,0-9.4-2.601-12-6.4c0-4,8-6.2,12-6.2s12,2.2,12,6.2
			C264.401,266.8,260,269.4,255,269.4z"/>
	</g>
</g>
</svg>
